<svg xmlns="http://www.w3.org/2000/svg" viewBox="0 0 512 512" fill="none">
  <rect width="512" height="512" fill="#00908A" />
  <path
    fill-rule="evenodd"
    clip-rule="evenodd"
    d="M18.9002 0.141701C18.7739 0.241358 18.7158 0.567652 18.665 1.46234C18.5407 3.64833 18.1642 4.914 17.116 6.67044C15.9106 8.69037 13.8068 10.7829 10.6594 13.0925C8.37577 14.7684 7.37515 15.5905 6.22935 16.7325C3.15873 19.793 1.02681 23.8261 0.318154 27.9153C-0.304369 31.5069 -0.00270116 35.5022 1.12978 38.6647C1.45436 39.5714 2.36363 41.4882 2.88798 42.3714C3.88316 44.0475 5.51846 45.9113 7.31162 47.4129C8.11504 48.0857 9.46572 49.0434 9.61112 49.0434C9.64192 49.0434 9.8032 49.1397 9.96971 49.2574C10.3723 49.5423 12.0297 50.3519 13.0429 50.7585C15.3175 51.6716 17.6104 52.1104 20.5196 52.1895C23.5453 52.2719 25.6072 51.9807 28.2985 51.091C29.534 50.6826 31.9547 49.465 33.2886 48.5811C36.1319 46.6971 37.8766 44.8379 39.7962 41.647C40.2451 40.9008 41.1591 38.8141 41.4736 37.8175C42.1602 35.6415 42.5052 32.1531 42.2695 29.7687C42.0745 27.7971 41.5288 25.3878 40.9863 24.1027C39.6117 20.8476 38.2786 18.7691 36.228 16.6843C35.1933 15.6323 34.7416 15.2596 32.1918 13.3529C29.6888 11.4813 28.4919 10.4665 27.2499 9.16281C24.9741 6.77359 23.9965 4.56049 23.7681 1.28018C23.7296 0.726827 23.6486 0.214564 23.5881 0.141701C23.4311 -0.0472337 19.1397 -0.0472337 18.9002 0.141701ZM28.6779 17.4552C27.7582 17.6871 25.6971 18.5896 24.5992 19.2412C22.6376 20.4053 21.4722 21.317 19.9674 22.8645C18.717 24.1503 18.2095 24.7948 17.354 26.1834C15.3104 29.5002 14.3085 33.041 14.3168 36.9173C14.3224 39.4842 14.5408 41.175 15.1924 43.6952C15.4942 44.8625 16.0897 46.5876 16.2447 46.7438C16.3343 46.834 16.8973 46.103 18.2661 44.1188C19.2935 42.6296 21.4044 39.4237 21.5088 39.1942C21.5485 39.1069 21.69 38.8599 21.8231 38.6453C22.5337 37.5006 23.5752 35.5934 24.6754 33.4224C25.8435 31.1176 26.0246 30.7365 26.4372 29.7157C26.5315 29.4827 26.7255 29.0406 26.8685 28.7332C27.0115 28.4258 27.1285 28.1274 27.1285 28.0698C27.1285 28.0124 27.1788 27.8826 27.2403 27.7815C27.3017 27.6803 27.5345 27.0785 27.7575 26.444C28.3643 24.7178 28.3825 25.0062 27.867 28.1801C26.8342 34.54 24.1973 40.2924 19.0225 47.4744C18.556 48.1217 18.1744 48.6993 18.1744 48.7579C18.1744 48.9062 20.5497 48.7757 21.6921 48.5647C23.7006 48.1937 26.655 47.04 28.0885 46.0669C31.9733 43.4299 34.3433 40.2105 35.7594 35.6464C36.1132 34.5062 36.2389 33.354 36.2388 31.2513C36.2388 29.3699 36.2057 28.9319 35.9912 27.9683C35.1534 24.2046 33.3099 20.9908 30.4697 18.3424C29.4238 17.3672 29.2899 17.3009 28.6779 17.4552Z"
    fill="#FFFFFF"
    transform="translate(125 96) scale(6.1185)"
  />
</svg>
