<?xml version="1.0" encoding="UTF-8" standalone="no"?>
<!-- Created with Inkscape (http://www.inkscape.org/) -->

<svg
   width="79.736031mm"
   height="25.832338mm"
   viewBox="0 0 79.736031 25.832338"
   version="1.1"
   id="svg1"
   xml:space="preserve"
   xmlns="http://www.w3.org/2000/svg"
   xmlns:svg="http://www.w3.org/2000/svg"><defs
     id="defs1" /><g
     id="layer1"
     transform="translate(-99.891879,-36.148994)"><path
       id="path1-4"
       style="fill:#4d4d4d;stroke:none;stroke-width:0.26121"
       d="m 117.42573,36.149685 c -0.43894,-0.01499 -0.89687,0.213131 -1.04667,0.67532 -0.11619,0.358501 -0.002,0.81167 0.26226,1.075519 0.13329,0.133294 0.38788,0.199735 0.42093,0.404397 0.0951,0.58891 0.013,1.283754 -0.0276,1.875412 -0.0405,0.591577 -0.003,1.209316 -0.003,1.80407 -0.461,-0.239147 -0.83042,-0.786068 -1.19118,-1.154724 -0.13549,-0.138449 -0.37407,-0.307313 -0.4225,-0.504843 -0.0308,-0.125506 0.0616,-0.273048 0.0824,-0.397054 0.0393,-0.234178 -0.006,-0.483107 -0.13086,-0.685021 -0.63369,-1.021689 -2.27126,-0.236513 -1.82611,0.901645 0.13646,0.348889 0.47637,0.612195 0.85444,0.645675 0.20651,0.01832 0.40085,-0.101898 0.5767,0.04563 0.43732,0.366864 0.7884,0.870694 1.17964,1.286372 0.22322,0.237169 0.5393,0.491276 0.65644,0.80041 0.29742,0.784973 -0.29555,1.796135 -0.93339,2.223945 -0.38363,0.257316 -0.86464,0.340711 -1.29895,0.482037 0,-0.561031 0.0481,-0.927888 0.45606,-1.355876 0.12499,-0.131114 0.31027,-0.149268 0.42539,-0.304485 0.39276,-0.529602 -0.41324,-1.225399 -0.87149,-0.71701 -0.34516,0.382928 0.06,0.57288 0.0626,0.934161 0.002,0.229575 -0.286,0.378187 -0.36637,0.577232 -0.10825,0.268104 0.0491,0.694828 -0.0999,0.92839 -0.0943,0.147729 -0.35157,0.209233 -0.50826,0.262261 -0.0318,-0.536637 0,-1.08556 0,-1.62364 0,-0.24473 -0.0588,-0.555301 -0.0144,-0.792284 0.0673,-0.35876 0.53985,-0.432519 0.47574,-0.903474 -0.10137,-0.744646 -1.17206,-0.81757 -1.34433,-0.07213 -0.0586,0.253468 0.0117,0.530256 0.20404,0.709405 0.0969,0.09032 0.2444,0.135677 0.29634,0.266718 0.0679,0.171377 0.0218,0.429293 0.0218,0.611327 v 1.298959 c 0,0.180438 0.0629,0.497776 -0.0168,0.661154 -0.0648,0.133027 -0.26119,0.201218 -0.38001,0.276946 -0.0977,-0.410451 0.11489,-1.006064 -0.10385,-1.371081 -0.22257,-0.371419 -0.63903,-0.706692 -0.94256,-1.010221 -0.15337,-0.153369 -0.37455,-0.30989 -0.3947,-0.541305 -0.0728,-0.836401 0.0387,-1.689923 0.0338,-2.525541 -0.004,-0.715883 -0.10783,-1.530317 0.006,-2.236272 0.033,-0.20531 0.28273,-0.263703 0.42093,-0.390506 0.23582,-0.216381 0.31101,-0.56608 0.24022,-0.872793 -0.20353,-0.881976 -1.51,-0.894149 -1.7566,-0.03623 -0.0965,0.335857 0.002,0.727934 0.26357,0.962226 0.15239,0.136844 0.42405,0.180284 0.46027,0.409122 0.0652,0.412444 0.006,0.880938 0.006,1.298699 0,0.605752 0.0513,1.237065 -0.006,1.840004 -0.0466,0.49011 -0.18034,1.33866 -0.003,1.803815 0.23175,0.609253 1.03072,0.923844 1.33279,1.485426 0.10733,0.199556 0.0485,0.531531 0.0475,0.751624 -7.6e-4,0.156708 0.0126,0.43123 -0.0729,0.567272 -0.10558,0.167949 -0.43603,0.188307 -0.61237,0.190139 -0.48904,0.0049 -1.42865,-0.196339 -1.62259,-0.721476 -0.14243,-0.385659 0.11959,-0.915317 -0.12431,-1.262772 -0.23998,-0.34187 -0.758,-0.676082 -0.88198,-1.082343 -0.0436,-0.14276 0.11275,-0.277699 0.17047,-0.396794 0.0908,-0.187351 0.10762,-0.418908 0.0284,-0.613415 -0.30297,-0.743155 -1.4042,-0.541484 -1.45291,0.252548 -0.0369,0.600978 0.43011,0.561144 0.77262,0.815624 0.1416,0.105213 0.23975,0.31135 0.35352,0.447148 0.4179,0.498878 0.71785,0.871667 0.55598,1.551518 -0.68844,-0.688442 -1.36825,-1.386122 -2.0561,-2.074718 -0.32223,-0.322582 -0.72024,-0.632318 -0.99763,-0.99212 -0.15117,-0.19608 -0.015,-0.391794 -0.0131,-0.613419 0.002,-0.326999 -0.13935,-0.644629 -0.39732,-0.851819 -0.90695,-0.728437 -2.05499,0.45919 -1.4689,1.393116 0.19133,0.304882 0.50719,0.435214 0.856,0.432726 0.16483,-0.0016 0.3588,-0.08395 0.50512,0.01499 0.37014,0.250217 0.67474,0.670587 0.97743,0.995535 0.37895,0.406812 0.79345,0.780039 1.1757,1.183827 0.2789,0.294605 0.70705,0.615291 0.87752,0.980843 -1.09587,0 -2.30274,0.139575 -3.12743,-0.769462 -0.21958,-0.24204 -0.11471,-0.625559 -0.40886,-0.882495 -0.96149,-0.839849 -2.30686,0.606789 -1.39574,1.495913 0.26795,0.261483 0.72243,0.344959 1.07158,0.211381 0.1414,-0.05414 0.31432,-0.227371 0.46893,-0.212167 0.484,0.04757 0.88554,0.650505 1.37108,0.75609 0.76886,0.167203 1.66082,-0.182586 2.41698,0.04012 0.40286,0.118657 0.5942,0.838917 0.65878,1.200611 0.0203,0.113681 0.0855,0.279523 0.0246,0.388665 -0.10098,0.181176 -0.37773,0.101865 -0.53868,0.08655 -0.47859,-0.04555 -1.22292,0.162721 -1.65956,-0.03566 -0.76648,-0.348256 -1.20659,-1.312055 -1.98451,-1.66665 -0.60668,-0.276548 -1.48546,0.120514 -2.12796,-0.04692 -0.2084,-0.0543 -0.25492,-0.340931 -0.40414,-0.476518 -0.34525,-0.313716 -0.94599,-0.25739 -1.24389,0.09258 -0.38685,0.454441 -0.17233,1.155153 0.38447,1.34748 0.31028,0.107181 0.66183,0.03226 0.89535,-0.201153 0.10208,-0.102027 0.16031,-0.274263 0.29897,-0.332542 0.48756,-0.204946 1.46971,-0.107327 1.98083,-0.01337 0.21649,0.03979 0.37317,0.25965 0.53081,0.397848 0.35106,0.307718 0.70569,0.61093 1.05665,0.918689 0.15624,0.137014 0.33383,0.337332 0.54104,0.391551 0.50836,0.13301 1.17711,0.0032 1.69576,-0.01913 0.14644,-0.0065 0.49405,-0.06127 0.5232,0.145029 0.0815,0.577095 -0.95115,0.394704 -1.28087,0.394704 -0.35079,0 -0.99291,0.122653 -1.2987,-0.06265 -0.23763,-0.144024 -0.55478,-0.395505 -0.74219,-0.600305 -0.14813,-0.161862 -0.13748,-0.378584 -0.37661,-0.465245 -0.43355,-0.157137 -0.86745,0.204873 -0.76815,0.659314 0.0756,0.346093 0.44337,0.510492 0.76842,0.409389 0.10704,-0.03331 0.22825,-0.169918 0.34539,-0.134275 0.29338,0.08925 0.42227,0.488942 0.73694,0.546282 0.7719,0.140661 1.61438,-0.138263 2.38131,0.04433 -0.0576,0.138643 -0.11964,0.353217 -0.25727,0.431935 -0.16314,0.09331 -0.46214,0.03728 -0.64463,0.03728 h -1.22685 c -0.18884,0 -0.4353,0.04085 -0.61342,-0.03096 -0.29031,-0.117061 -0.45821,-0.451743 -0.79359,-0.472596 -0.57259,-0.03558 -1.15818,-0.0016 -1.73196,-0.0016 -0.2326,0 -0.53171,0.04968 -0.75609,-0.01572 -0.1804,-0.05252 -0.22686,-0.284856 -0.33805,-0.416723 -0.26071,-0.309202 -0.68522,-0.443136 -1.07054,-0.305539 -0.9995,0.356945 -0.79526,1.829647 0.25256,1.922354 0.30349,0.02683 0.62032,-0.105107 0.81693,-0.337 0.1709,-0.201557 0.17073,-0.440258 0.48203,-0.450032 0.51605,-0.01621 1.03494,-5.11e-4 1.55126,-5.11e-4 0.24659,0 0.55469,-0.04919 0.7936,0.01572 0.27707,0.07537 0.42189,0.39831 0.72172,0.445583 0.77812,0.122677 1.66502,0.0081 2.45344,0.0081 l -0.0721,0.432989 c -0.77586,0 -1.65166,0.11501 -2.41724,-0.0057 -0.31954,-0.05033 -0.40693,-0.389686 -0.79386,-0.351693 -0.54574,0.05357 -0.64957,0.848724 -0.1799,1.089945 0.49982,0.256709 0.60522,-0.262341 0.97533,-0.3606 0.65477,-0.173841 1.56395,-0.0041 2.23523,0.02464 -0.23664,0.636565 -1.00095,1.085714 -1.62364,1.27274 -0.66509,0.199751 -1.44038,0.09835 -2.12848,0.09835 -1.11618,0 -2.28015,0.09595 -3.39153,-0.0024 -0.27162,-0.02399 -0.36747,-0.384257 -0.57776,-0.531069 -0.59133,-0.412874 -1.41236,-0.112887 -1.621269,0.569095 -0.21457,0.70046 0.436659,1.427082 1.152619,1.324139 0.24086,-0.03461 0.47556,-0.147687 0.63702,-0.332534 0.10844,-0.124144 0.16853,-0.355648 0.34068,-0.402832 0.2139,-0.05859 0.49695,-0.01151 0.71806,-0.01151 h 1.51533 c 1.61207,0 3.56944,-0.312297 4.75763,1.046408 0.20212,0.231131 0.27766,0.554523 0.40178,0.829783 -0.4352,0 -1.15996,0.166458 -1.55152,-0.02464 -0.20034,-0.09779 -0.35252,-0.271589 -0.54104,-0.387888 -0.10257,-0.0633 -0.24953,-0.06978 -0.33753,-0.150265 -0.20559,-0.187991 -0.23165,-0.42041 -0.56464,-0.443743 -0.6733,-0.04717 -0.90615,0.899741 -0.28849,1.167828 0.39896,0.17316 0.53601,-0.236577 0.86598,-0.265664 0.27318,-0.02407 0.50973,0.392159 0.75766,0.475999 0.6976,0.235897 1.80304,-0.417039 1.98425,0.602672 -1.21203,-0.05203 -2.42902,-0.03615 -3.64408,-0.03615 -0.53244,0 -1.13374,0.0791 -1.65904,-0.0049 -0.21061,-0.0338 -0.24977,-0.283421 -0.3732,-0.426173 -0.18783,-0.217257 -0.49579,-0.335614 -0.78179,-0.322574 -1.06759,0.04863 -1.23615,1.556729 -0.25256,1.899799 0.38532,0.134388 0.81736,5.03e-4 1.06819,-0.316025 0.0989,-0.124809 0.13888,-0.374386 0.30657,-0.421448 0.39627,-0.111194 0.95518,-0.01151 1.36715,-0.01151 h 2.99473 c 0.26179,0 0.89607,-0.115156 1.10332,0.05795 0.11904,0.09943 0.15428,0.305109 0.19539,0.447148 -0.76836,0.182933 -1.73694,0.03615 -2.52555,0.03615 -0.22228,0 -0.50648,-0.05325 -0.72147,-0.0065 -0.48174,0.105196 -0.83694,0.794415 -1.26277,1.03408 -0.3476,0.195642 -1.0844,0.05454 -1.47941,0.05454 h -1.37117 c -0.19181,0 -0.4671,0.04976 -0.64751,-0.0218 -0.153,-0.0607 -0.20613,-0.253054 -0.30946,-0.368478 -0.21091,-0.235564 -0.54512,-0.319761 -0.8471,-0.261466 -0.956519,0.184628 -0.85581,1.578449 0.0362,1.781774 0.30918,0.07051 0.64457,-0.05641 0.84106,-0.301591 0.11118,-0.138725 0.15113,-0.358299 0.35011,-0.390238 0.83198,-0.133554 1.78945,-0.0049 2.63308,-0.0049 0.26901,0 0.60459,0.05398 0.86597,-0.01151 0.48475,-0.121502 0.83573,-0.7997 1.26278,-1.050606 0.2361,-0.138716 0.67101,-0.05641 0.9381,-0.05641 h 1.69576 c 0.15098,0 0.4712,-0.06005 0.5864,0.05795 0.11049,0.113162 0.0379,0.346206 0.0212,0.483342 -0.0492,0.405377 -0.25205,1.176306 -0.68029,1.344068 -0.76018,0.297806 -1.68289,-0.153766 -2.45291,0.04692 -0.43504,0.113405 -0.8848,0.698499 -1.32466,0.716491 -0.13363,0.0057 -0.28717,-0.170688 -0.40729,-0.224753 -0.34088,-0.153442 -0.79767,-0.101038 -1.08181,0.145281 -0.95826,0.830731 0.21398,2.382598 1.26172,1.649873 0.17276,-0.120821 0.31335,-0.301024 0.3766,-0.503011 0.0452,-0.144438 0.0275,-0.334601 0.14058,-0.447156 0.85801,-0.85404 1.99292,-0.707308 3.09123,-0.707308 1.54809,-0.230102 2.14206,-0.894603 2.85022,-0.452391 0.70817,0.442203 1.56237,0.974002 2.72985,1.266443 3.8307,0.877519 7.39872,0.06816 10.82235,-1.429838 0.11581,1.384502 1.7859,2.495623 2.77102,1.159449 0.50217,-0.681139 0.63175,-1.725286 0.85653,-2.535246 0.31546,-1.136731 0.75917,-2.235956 1.28769,-3.280856 0.38551,-0.762159 0.87252,-1.722222 1.7351,-1.905042 0,1.033391 -0.24634,2.082457 0.14896,3.069216 0.73208,1.827426 3.07097,1.525081 4.48619,0.952517 0,1.590987 0.0195,4.964858 2.41802,4.164137 0.80507,-0.268752 0.96993,-1.307833 1.18121,-2.047454 0.51991,-1.820043 1.06734,-3.612637 2.11642,-5.185891 0.36472,-0.546938 1.094,-1.711387 1.84132,-1.637012 0.97137,0.09667 0.56548,1.582736 0.17938,2.05872 -0.70877,0.87375 -2.19123,1.04584 -2.51768,2.224472 -0.89875,3.244953 2.79582,5.025738 5.26089,4.60972 1.45333,-0.245282 2.52865,-1.339198 3.52685,-2.387599 0.93665,3.107623 5.21832,3.122446 7.05344,0.952517 h 0.1007 c 1.73717,2.588419 4.43121,1.411935 6.04584,-0.529237 0.16357,0.410467 0.35181,0.819831 0.63782,1.154197 1.87032,2.18664 4.40054,-0.09596 5.81111,-1.577477 1.11008,2.701501 4.53558,3.164849 6.65061,1.477298 3.55675,-2.837899 3.6314,-10.397951 -1.41069,-11.42554 2.04269,-2.703421 3.45008,-5.900599 3.21529,-9.418993 -0.20719,-3.104811 -3.26991,-3.906699 -5.22157,-1.795155 -3.06728,3.318567 -3.72665,9.271574 -4.12322,13.648169 -0.23331,2.574755 0.77958,5.53153 -2.1332,6.833398 -1.32878,0.593879 -0.90504,-1.740603 -0.8193,-2.388385 0.17829,-1.346986 0.46223,-2.675015 0.64489,-4.021466 0.065,-0.479192 0.22092,-1.236919 -0.10202,-1.649079 -0.4405,-0.562223 -1.55482,-0.40276 -2.14185,-0.255964 -0.31674,-2.092815 -3.46666,-0.564289 -4.43374,0.152372 -1.41533,1.048839 -2.45972,2.65469 -2.93625,4.398332 -0.21789,0.797276 -0.11752,1.957957 -0.54917,2.645661 -0.56629,0.902196 -2.11507,1.712254 -3.06002,0.989498 -1.83656,-1.404714 0.77006,-4.046566 1.56279,-5.434252 1.89471,-3.316727 3.67267,-7.385555 3.67267,-11.324044 0,-1.459435 0.009,-3.371675 -1.21819,-4.361351 -2.43672,-1.964489 -4.71746,1.581529 -5.60787,3.514524 -1.59879,3.470886 -2.18365,7.524802 -2.5279,11.324303 -0.11841,1.306772 0.28548,2.866564 0.01,4.127416 -0.20545,0.939242 -1.67997,2.169361 -2.54601,2.378157 -0.59366,0.143141 -2.43801,-0.439416 -2.00155,-1.385507 0.29211,-0.633153 1.40209,-1.046164 1.85364,-1.627837 1.35352,-1.74357 1.68562,-5.289142 -0.75897,-6.202928 -2.97813,-1.113237 -5.8565,2.948338 -6.44893,5.568 -0.6112,-2.171777 1.02621,-3.43724 2.19668,-4.973992 1.91411,-2.513096 3.81531,-5.462301 3.95381,-8.784065 0.0486,-1.166921 0.0263,-2.403645 -0.67007,-3.386279 -1.40286,-1.979498 -3.8898,-0.774365 -5.00206,0.846308 -2.26905,3.306256 -2.94043,7.694583 -3.42876,11.641367 -0.12278,0.992342 0.13657,3.79476 -0.77969,4.290809 -0.65776,0.356102 -1.11853,-0.231317 -1.05926,-0.904004 0.1243,-1.410824 1.17733,-4.329573 -1.05481,-4.440815 -2.656,-0.132378 -5.07839,3.108369 -5.643,5.604981 h -0.10071 c 0.0203,-1.037331 0.32877,-2.06834 0.567,-3.069208 0.13945,-0.585864 0.55776,-1.634824 0.23629,-2.206902 -0.55082,-0.980234 -2.47138,-0.08874 -2.86569,0.621029 -0.74237,1.336279 -0.59314,3.309805 -1.01862,4.760771 -0.47281,1.612439 -2.29799,3.243494 -3.89594,3.681597 -1.63173,0.447383 -2.32799,0.467076 -4.6264,0.254634 -3.36803,-0.336756 -5.47892,-3.791477 -4.46677,-6.969512 0.83083,-2.608729 3.66929,-4.074785 6.27059,-3.287137 1.20549,0.365009 2.22916,1.279905 2.75817,2.421426 0.11963,0.258144 0.41122,0.859 0.31681,1.146328 -0.0564,0.171685 -0.37671,0.116445 -0.51324,0.116445 h -1.58745 c -0.66408,0 -1.44017,0.111914 -2.09256,-0.0083 -0.20022,-0.03696 -0.32069,-0.249058 -0.46918,-0.371889 -0.26266,-0.217257 -0.53673,-0.362667 -0.86598,-0.448979 -1.47491,-0.386656 -2.87957,0.8407 -2.73587,2.344588 0.0873,0.913664 0.73698,1.747881 1.65353,1.947794 0.568,0.123884 1.21301,0.02918 1.69577,-0.316553 0.21645,-0.155014 0.41603,-0.537123 0.6858,-0.57959 0.54927,-0.08646 1.17496,-0.0057 1.73142,-0.0057 1.03448,0 2.0715,-0.03096 3.10305,-0.0359 0.80009,-0.0041 1.64589,0.125408 2.23024,-0.541297 0.57611,-0.657312 0.3922,-1.739695 0.24521,-2.525544 -0.43313,-2.315639 -1.83097,-4.268725 -3.95485,-5.330661 -1.08371,-0.541856 -2.60311,-0.753245 -2.87514,-2.17386 -0.0875,-0.457156 -0.15898,-1.225764 0.0399,-1.659563 0.2004,-0.437187 0.64586,-0.822376 0.95016,-1.190651 0.22837,-0.276394 0.46922,-0.716207 0.77707,-0.907934 0.12814,-0.07983 0.28426,-5.11e-4 0.4225,-5.11e-4 0.25812,2.84e-4 0.52017,-0.09776 0.71124,-0.27013 0.4543,-0.409818 0.39847,-1.21733 -0.0978,-1.570661 -0.63709,-0.453566 -1.51462,-0.06873 -1.64278,0.692624 -0.0393,0.233295 0.17021,0.513353 0.0779,0.721735 -0.0781,0.176207 -0.26103,0.325645 -0.38395,0.472328 -0.31367,0.37432 -0.67018,0.978394 -1.11801,1.187238 0,-0.711377 -0.0359,-1.418937 -0.0359,-2.128742 0,-0.278412 -0.0582,-0.631426 0.0115,-0.901386 0.049,-0.189847 0.28883,-0.270559 0.4162,-0.404145 0.24666,-0.25867 0.33704,-0.617414 0.28613,-0.967462 -0.0742,-0.510427 -0.49417,-0.768368 -0.93312,-0.783369 z m -0.0779,0.464985 c 0.64274,-0.02123 0.76381,0.974918 0.0805,1.064773 -0.68077,0.08951 -0.83627,-0.968524 -0.14423,-1.059529 0.0218,-0.0032 0.043,-0.0049 0.0637,-0.0049 z m -6.05161,0.536054 c 0.52643,-0.0065 0.7181,0.842734 0.14293,0.993696 -0.64942,0.170453 -0.91289,-0.832255 -0.25256,-0.980583 0.0379,-0.0085 0.0746,-0.01272 0.10963,-0.01313 z m 8.82839,1.381316 c 0.62972,-0.0065 0.75857,0.986913 0.0818,1.064245 -0.69402,0.07926 -0.83423,-0.9844 -0.14424,-1.060574 0.0213,-0.0024 0.0421,-0.0032 0.0624,-0.0032 z m 35.97028,0.623914 c 0.0405,-8.11e-4 0.0817,0.0032 0.12378,0.01443 0.85453,0.215473 0.55268,2.756432 0.45528,3.413031 -0.51952,3.502405 -1.86053,6.801301 -3.56802,9.842282 -0.30702,-0.768457 -0.008,-2.04166 0.085,-2.857309 0.2881,-2.52873 0.70481,-5.069503 1.39835,-7.51421 0.16771,-0.591148 0.68057,-2.880869 1.50563,-2.89822 z m 19.62477,0 c 0.048,-0.0024 0.0974,0.0016 0.14818,0.01443 0.81586,0.205642 0.54172,2.279485 0.43351,2.883794 -0.53086,2.964681 -2.12815,5.42907 -3.24413,8.149138 -0.26828,-0.677817 0.0469,-1.820741 0.14346,-2.539971 0.2801,-2.087247 0.58222,-4.237863 1.21845,-6.244095 0.16587,-0.523046 0.58016,-2.221676 1.30053,-2.263292 z m -32.73217,8.1e-4 c 0.0445,-0.0024 0.0903,0.0016 0.13743,0.01337 0.79541,0.195139 0.55447,1.971312 0.47993,2.566455 -0.27975,2.2334 -1.61129,5.438415 -3.29606,6.879023 0.0192,-2.43509 0.74296,-5.115333 1.47782,-7.408252 0.15698,-0.489809 0.53316,-2.014388 1.20088,-2.050599 z m -28.48963,0.08048 c 0.52517,0.01402 0.7457,0.836874 0.15237,1.022013 -0.6487,0.202425 -0.99058,-0.806038 -0.32467,-0.99894 0.0603,-0.01743 0.11798,-0.02448 0.1723,-0.0231 z m -8.9645,2.227616 c 0.0198,-8.1e-4 0.0401,-8.1e-4 0.0611,2.59e-4 0.64942,0.03331 0.57413,1.06098 -0.0721,1.015732 -0.65873,-0.04611 -0.60294,-0.988387 0.011,-1.015991 z m 7.94379,0.915804 c 0.37527,0.0124 0.4732,0.602142 0.0545,0.705474 -0.43583,0.10757 -0.60264,-0.572909 -0.17965,-0.689476 0.0445,-0.01224 0.0863,-0.01726 0.12509,-0.01597 z m -4.78831,0.136641 c 0.0144,-1.13e-4 0.0293,4.06e-4 0.0446,0.0016 0.50949,0.04774 0.40462,0.843777 -0.0724,0.781786 -0.4742,-0.06159 -0.42028,-0.780392 0.0278,-0.783626 z m 6.30496,0.841321 c 0.27482,-0.0089 0.41592,0.436968 0.0889,0.538153 -0.33143,0.102545 -0.49715,-0.400782 -0.17834,-0.519796 0.031,-0.01151 0.061,-0.01743 0.0894,-0.0184 z m -10.13654,1.411732 c 0.57233,-0.02529 0.73369,0.899004 0.12379,0.994223 -0.66858,0.10437 -0.8439,-0.890688 -0.18044,-0.98872 0.0193,-0.0032 0.0382,-0.0049 0.0566,-0.0057 z m -1.9714,1.68632 c 0.43317,0.01313 0.62497,0.719117 0.14686,0.851552 -0.55223,0.152972 -0.85009,-0.663123 -0.28847,-0.831883 0.0495,-0.01483 0.0968,-0.02099 0.14161,-0.01969 z m 10.75206,0.314186 c 0.48414,0.0073 0.49095,0.767524 0,0.761333 -0.49379,-0.0065 -0.50137,-0.768822 0,-0.761333 z m -1.71989,1.314965 c 0.39464,-0.02399 0.56697,0.633979 0.13454,0.765523 -0.48062,0.146212 -0.71007,-0.610882 -0.21637,-0.751365 0.0282,-0.0081 0.0555,-0.01256 0.0818,-0.01418 z m -5.69808,0.434553 c 0.25433,-2.11e-4 0.37764,0.37009 0.0944,0.477312 -0.32121,0.121607 -0.5023,-0.366873 -0.17728,-0.464459 0.0289,-0.0086 0.0566,-0.01281 0.0829,-0.01281 z m -3.41801,0.908988 c 0.58151,0.0093 0.63163,0.957526 0.0144,1.01809 -0.66417,0.06516 -0.73126,-0.959114 -0.0721,-1.015991 0.0199,-0.0016 0.0389,-0.0024 0.0577,-0.0024 z m 7.99914,0.498295 c 0.39946,0.0024 0.53798,0.650545 0.0965,0.741396 -0.48295,0.0994 -0.65989,-0.633947 -0.17965,-0.732741 0.0289,-0.0057 0.0565,-0.0088 0.0831,-0.0087 z m -4.44921,1.068702 c 0.31675,0 0.30676,0.489559 0,0.503271 -0.34347,0.0154 -0.3322,-0.503271 0,-0.503271 z m 57.83814,0.264879 c -0.13812,1.822579 -0.46852,4.261042 -1.19931,5.926776 -0.32188,0.733688 -1.06862,1.621646 -1.91999,1.145282 -0.78845,-0.441167 -0.62309,-1.655337 -0.52136,-2.415397 0.30512,-2.279996 1.47828,-4.067572 3.64066,-4.656661 z m 10.47958,0.473632 c 0.84566,-0.03542 1.40312,0.752735 1.58797,1.537368 0.34395,1.460027 0.21374,4.944896 -1.78965,5.02958 -0.86356,0.03647 -1.39296,-0.74946 -1.5961,-1.537092 -0.38484,-1.492113 -0.23158,-4.94488 1.79778,-5.029856 z m -64.32117,0.269855 c 0.0143,-3.73e-4 0.0293,-1.7e-5 0.0446,8.1e-4 0.48396,0.03372 0.45173,0.76464 -0.0361,0.725406 -0.45379,-0.03647 -0.45374,-0.715097 -0.008,-0.726451 z m -9.43159,0.621028 c 0.57928,-0.0175 0.75911,0.868596 0.13166,0.997627 -0.60486,0.124379 -0.86188,-0.841194 -0.25256,-0.981637 0.0421,-0.0097 0.0823,-0.01483 0.1209,-0.01597 z m 9.47984,1.423792 c 0.40121,-0.0093 0.49759,0.668026 0.0685,0.733802 -0.48375,0.07416 -0.57735,-0.669663 -0.10831,-0.730909 0.0135,-0.0024 0.0269,-0.0024 0.0399,-0.0032 z m -3.98554,0.572515 c 0.27942,-0.0032 0.3526,0.440624 0.0486,0.514544 -0.34346,0.08352 -0.43459,-0.435987 -0.107,-0.507468 0.0204,-0.0049 0.0399,-0.0065 0.0585,-0.0073 z m -3.04769,1.324926 c 0.54271,-0.0083 0.7027,0.868676 0.10227,0.992383 -0.61612,0.12694 -0.81845,-0.842532 -0.21583,-0.978484 0.0395,-0.0089 0.0774,-0.01337 0.11356,-0.01394 z m 7.54385,0.03858 c 0.39178,-0.0214 0.55415,0.589105 0.13507,0.703119 -0.45359,0.123398 -0.66902,-0.570952 -0.21637,-0.690006 0.028,-0.0073 0.0552,-0.01167 0.0813,-0.01313 z m 1.11827,1.659834 c 0.38977,-0.02083 0.53015,0.590232 0.0991,0.702851 -0.44425,0.116072 -0.62718,-0.573171 -0.18017,-0.689997 0.0281,-0.0073 0.055,-0.01151 0.0811,-0.01281 z m -10.90836,0.394177 c 0.49967,-0.01443 0.65641,0.769535 0.11171,0.887479 -0.54496,0.118001 -0.75843,-0.746308 -0.21609,-0.873321 0.0362,-0.0084 0.0711,-0.01321 0.10438,-0.01418 z m 3.79382,2.384972 c 0.5262,0.0057 0.66159,0.88175 0.07,0.988453 -0.61917,0.111679 -0.79581,-0.852371 -0.18043,-0.977698 0.0384,-0.0081 0.0754,-0.0111 0.11041,-0.01078 z" /></g></svg>
