<svg height="238" viewBox="0 0 255 238" width="255" xmlns="http://www.w3.org/2000/svg"><path clip-rule="evenodd" d="m88.6392 76.1422-34.5545 27.9628c-5.4738 4.43-6.3202 12.458-1.8906 17.932.5643.697 1.2005 1.333 1.8981 1.897l65.3948 52.839c4.674 3.777 11.352 3.777 16.026 0l65.395-52.839c5.477-4.426 6.329-12.453 1.904-17.931-.564-.697-1.2-1.333-1.897-1.898l-34.554-27.9628c-5.474-4.4297-6.32-12.458-1.891-17.9319.597-.7377 1.275-1.4064 2.02-1.9938l67.869-53.4804c5.53-4.35828 13.547-3.407755 17.905 2.12306 1.772 2.24872 2.736 5.02839 2.736 7.89134v119.6105c0 3.851-1.741 7.496-4.737 9.917l-114.75 92.718c-4.674 3.777-11.352 3.777-16.026 0l-114.75014-92.718c-2.99581-2.421-4.73686-6.066-4.73686-9.917v-119.6105c0-7.0416 5.70837-12.7505 12.75-12.7505 2.863 0 5.6427.964113 7.8914 2.7361l67.8685 53.4804c5.5309 4.3583 6.4814 12.375 2.1231 17.9058-.5874.7454-1.2561 1.4229-1.9938 2.0199z" fill-rule="evenodd"/></svg>