<svg fill="none" height="100" viewBox="0 0 100 100" width="100" xmlns="http://www.w3.org/2000/svg" xmlns:xlink="http://www.w3.org/1999/xlink"><filter id="a" color-interpolation-filters="sRGB" filterUnits="userSpaceOnUse" height="112.5" width="112.5" x="-6.25" y="-4.16667"><feFlood flood-opacity="0" result="BackgroundImageFix"/><feColorMatrix in="SourceAlpha" type="matrix" values="0 0 0 0 0 0 0 0 0 0 0 0 0 0 0 0 0 0 127 0"/><feOffset dy="2.08333"/><feGaussianBlur stdDeviation="3.125"/><feColorMatrix type="matrix" values="0 0 0 0 0 0 0 0 0 0 0 0 0 0 0 0 0 0 0.15 0"/><feBlend in2="BackgroundImageFix" mode="normal" result="effect1_dropShadow"/><feBlend in="SourceGraphic" in2="effect1_dropShadow" mode="normal" result="shape"/></filter><filter id="b" color-interpolation-filters="sRGB" filterUnits="userSpaceOnUse" height="92.6376" width="116.728" x="-8.39436" y="15.6951"><feFlood flood-opacity="0" result="BackgroundImageFix"/><feColorMatrix in="SourceAlpha" type="matrix" values="0 0 0 0 0 0 0 0 0 0 0 0 0 0 0 0 0 0 127 0"/><feOffset/><feGaussianBlur stdDeviation="4.16667"/><feColorMatrix type="matrix" values="0 0 0 0 0 0 0 0 0 0 0 0 0 0 0 0 0 0 0.25 0"/><feBlend in2="BackgroundImageFix" mode="overlay" result="effect1_dropShadow"/><feBlend in="SourceGraphic" in2="effect1_dropShadow" mode="normal" result="shape"/></filter><filter id="c" color-interpolation-filters="sRGB" filterUnits="userSpaceOnUse" height="116.667" width="47.9167" x="60.4167" y="-8.33346"><feFlood flood-opacity="0" result="BackgroundImageFix"/><feColorMatrix in="SourceAlpha" type="matrix" values="0 0 0 0 0 0 0 0 0 0 0 0 0 0 0 0 0 0 127 0"/><feOffset/><feGaussianBlur stdDeviation="4.16667"/><feColorMatrix type="matrix" values="0 0 0 0 0 0 0 0 0 0 0 0 0 0 0 0 0 0 0.25 0"/><feBlend in2="BackgroundImageFix" mode="overlay" result="effect1_dropShadow"/><feBlend in="SourceGraphic" in2="effect1_dropShadow" mode="normal" result="shape"/></filter><linearGradient id="d" gradientUnits="userSpaceOnUse" x1="49.939" x2="49.939" y1="-.000052" y2="100.001"><stop offset="0" stop-color="#fff"/><stop offset="1" stop-color="#fff" stop-opacity="0"/></linearGradient><clipPath id="e"><path d="m0 0h100v100h-100z"/></clipPath><mask id="f" height="100" maskUnits="userSpaceOnUse" width="100" x="0" y="0"><path clip-rule="evenodd" d="m70.9119 99.5723c1.575.6167 3.3709.5777 4.9606-.1916l20.5879-9.9576c2.1636-1.046 3.5396-3.2469 3.5396-5.6615v-67.5224c0-2.4145-1.376-4.6154-3.5396-5.6618l-20.5879-9.958333c-2.0863-1.009058-4.5279-.761952-6.359.576203-.2615.19109-.5107.40458-.7445.63975l-39.4139 36.14448-17.1679-13.0995c-1.5981-1.2193-3.83355-1.1194-5.31782.2378l-5.50636 5.0347c-1.815623 1.6602-1.817603 4.5312-.00448 6.1941l14.88856 13.6535-14.88856 13.6535c-1.813123 1.6628-1.811143 4.534.00448 6.1941l5.50636 5.0347c1.48427 1.3571 3.71972 1.4576 5.31782.2377l17.1679-13.0994 39.4139 36.1444c.6235.6272 1.3556 1.0994 2.1429 1.4072zm4.1033-72.391-29.906 22.8188 29.906 22.8188z" fill="#fff" fill-rule="evenodd"/></mask><g clip-path="url(#e)"><g filter="url(#a)"><g mask="url(#f)"><path d="m96.4614 10.593-20.6047-9.97215c-2.385-1.154287-5.2352-.6674006-7.1069 1.21407l-67.45146 61.81858c-1.814275 1.6629-1.812192 4.534.00447 6.1941l5.50969 5.0347c1.48521 1.3572 3.722 1.4567 5.321.2378l81.2269-61.9401c2.725-2.078 6.6396-.1243 6.6396 3.3139v-.2404c0-2.4135-1.3761-4.6135-3.5386-5.6605z" fill="#d9d9d9"/><g filter="url(#b)"><path d="m96.4614 89.4074-20.6047 9.9723c-2.385 1.1543-5.2352.6673-7.1069-1.2146l-67.45146-61.8187c-1.814275-1.6627-1.812192-4.5339.00447-6.194l5.50969-5.0347c1.48521-1.3572 3.722-1.4571 5.321-.2377l81.2269 61.9401c2.725 2.0784 6.6396.1246 6.6396-3.314v.2409c0 2.4134-1.3761 4.6133-3.5386 5.6604z" fill="#e6e6e6"/></g><g filter="url(#c)"><path d="m75.8578 99.3807c-2.3857 1.1543-5.2359.6663-7.1078-1.2156 2.3064 2.3179 6.25.6764 6.25-2.602v-91.12601c0-3.27857-3.9435-4.920583-6.25-2.60217 1.8719-1.8816814 4.7221-2.369196 7.1078-1.215957l20.6005 9.958337c2.1646 1.0464 3.5417 3.2473 3.5417 5.6618v67.5225c0 2.4146-1.3771 4.6145-3.5417 5.6615z" fill="#fff"/></g><path clip-rule="evenodd" d="m70.8508 99.5723c1.575.6167 3.371.5777 4.9607-.1916l20.5885-9.9576c2.1635-1.046 3.5386-3.2469 3.5386-5.6615v-67.5225c0-2.4144-1.3751-4.6152-3.5386-5.6617l-20.5885-9.958426c-2.0863-1.009059-4.528-.761845-6.359.576206-.2616.19119-.5107.40458-.7446.63975l-39.4138 36.14457-17.168-13.0995c-1.5981-1.2194-3.8335-1.1195-5.31777.2377l-5.50635 5.0347c-1.81552 1.6602-1.817605 4.5313-.00448 6.1941l14.8885 13.6535-14.8885 13.6536c-1.813125 1.6628-1.81104 4.5339.00448 6.194l5.50635 5.0348c1.48427 1.3571 3.71967 1.4566 5.31777.2377l17.168-13.0994 39.4138 36.1444c.6236.6272 1.3556 1.0994 2.1429 1.4072zm4.1034-72.3911-29.9061 22.8188 29.9061 22.8188z" fill="url(#d)" fill-rule="evenodd" opacity=".0625"/></g></g></g></svg>