<svg width="32" height="32" viewBox="0 0 32 32" fill="none" xmlns="http://www.w3.org/2000/svg">
<path d="M18.1483 22.1039C18.824 22.1039 19.3697 21.5586 19.3697 20.886C19.3697 20.2134 18.824 19.6681 18.1483 19.6681C17.4779 19.6681 16.9322 20.2134 16.9322 20.886C16.9322 21.5586 17.4779 22.1039 18.1483 22.1039Z" fill="black"/>
<path d="M13.7717 22.1401C14.4473 22.1401 14.9879 21.5948 14.9879 20.9222C14.9879 20.2496 14.4473 19.7043 13.7717 19.7043C13.1012 19.7043 12.5555 20.2496 12.5555 20.9222C12.5555 21.5948 13.1012 22.1401 13.7717 22.1401Z" fill="black"/>
<path d="M14.0065 9.41657C14.5525 10.8936 15.9772 15.0785 16.0812 15.3117C16.1072 15.1951 17.5423 10.6345 17.9479 9.44249H20.9637V19.8465C20.5893 19.6392 20.2149 19.4319 19.8093 19.1986C19.5285 19.0562 19.2686 18.9006 18.9826 18.784C18.9566 16.7629 18.9306 14.7546 18.8682 12.6557C18.4626 13.8606 17.0639 18.1103 16.9495 18.2269H15.0828C15.0828 18.2269 13.2681 13.0703 13.1797 12.8371C13.1537 14.8194 13.1277 16.8017 13.0601 18.8488C11.9474 19.4189 11.287 19.7428 11.0791 19.8205V9.41657H14.0065Z" fill="black"/>
<path d="M16.0026 6.74911C21.0931 6.74911 25.2529 10.8952 25.2529 16C25.2529 21.1048 21.1087 25.2509 16.0026 25.2509C10.8965 25.2509 6.7523 21.1048 6.7523 16C6.7523 10.8952 10.8965 6.74911 16.0026 6.74911ZM16.0026 5C9.92415 5 5 9.92345 5 16C5 22.0765 9.92415 27 16.0026 27C22.0759 27 27 22.0765 27 16C27 9.92345 22.0759 5 16.0026 5Z" fill="black"/>
</svg>
