<?xml version="1.0" encoding="utf-8"?>
<svg xmlns="http://www.w3.org/2000/svg" version="1.1" viewBox="0 0 512 507" style="shape-rendering:geometricPrecision; text-rendering:geometricPrecision; image-rendering:optimizeQuality; fill-rule:evenodd; clip-rule:evenodd">
  <rect width="512" height="507" fill="#FFFFFF"/>
  <path fill="none" stroke="#000000" stroke-width="22" stroke-linejoin="round" d="M 246.5 66.5 C 286.96 66.349 326.626 71.849 365.5 83 C 383.232 88.11 398.732 96.943 412 109.5 C 419.615 118.077 422.615 128.077 421 139.5 C 411.569 189.088 379.824 370.213 375 395.5 C 368.731 410.433 357.897 420.6 342.5 426 C 320.239 434.211 297.239 438.878 273.5 440 C 239.061 442.63 205.061 439.963 171.5 432 C 153.255 428.138 138.088 419.305 126 405.5 C 122.126 398.674 119.792 391.341 119 383.5 C 104.274 300.142 89.44 216.808 74.5 133.5 C 75.32 125.872 77.82 118.872 82 112.5 C 91.865 101.484 103.699 93.317 117.5 88 C 139.754 79.353 162.754 73.686 186.5 71 C 206.583 68.504 226.583 67.004 246.5 66.5 Z M 225.5 95.5 C 268.555 93.489 310.888 97.989 352.5 109 C 367.13 112.64 379.964 119.473 391 129.5 C 393 132.167 393 134.833 391 137.5 C 383.744 144.881 375.244 150.381 365.5 154 C 327.387 166.661 288.221 172.828 248 172.5 C 208.897 172.592 170.73 166.759 133.5 155 C 123.122 151.4 113.956 145.9 106 138.5 C 103.707 136.28 103.253 135.532 103.895 132.519 C 105.764 128.53 117.358 118.551 127.5 115 C 145.864 107.659 164.864 102.659 184.5 100 C 198.289 98.223 211.956 96.723 225.5 95.5 Z M 111.5 176.5 C 130.021 184.839 149.354 190.672 169.5 194 C 233.764 204.793 297.43 202.126 360.5 186 C 368.359 183.658 376.026 180.825 383.5 177.5 C 377.876 216.407 351.158 366.216 347 387.5 C 341.849 393.835 335.349 398.335 327.5 401 C 296.209 410.588 264.209 414.255 231.5 412 C 211.058 411.26 191.058 407.926 171.5 402 C 163.971 399.321 157.137 395.488 151 390.5 C 150.333 389.167 149.667 387.833 149 386.5 C 136.433 316.499 123.933 246.499 111.5 176.5 Z"/>
  <g transform="matrix(1, 0, 0, 1, -17.874409, -15.536506)">
    <path d="M 359.115 354.467 L 266.629 257.8 L 318.235 217.752 L 371.43 308.399 L 595.211 182.51 L 359.115 354.467 Z" style="stroke: rgb(0, 0, 0); fill: none; stroke-width: 18px; stroke-linejoin: round;" transform="matrix(0.96347702, -0.26778999, 0.26778999, 0.96347702, -55.83806112, 120.75194703)"/>
  </g>
  <ellipse style="stroke: rgb(0, 0, 0); fill: none; stroke-width: 22px;" cx="264.013" cy="250.762" rx="25.985" ry="25.985"/>
</svg>
