<svg width="309" height="292" viewBox="0 0 309 292" fill="none" xmlns="http://www.w3.org/2000/svg">
<path d="M151.34 0.114329C152.027 0.087579 152.713 0.0665773 153.4 0.0515773C164.119 -0.180173 174.663 0.0355797 182.588 8.05408C189.431 14.9776 191.224 21.9551 191.224 31.2148C191.225 49.0356 191.225 66.8263 191.225 84.6268L191.228 191.476L191.232 241.292L191.229 256.142C191.211 266.434 190.798 274.737 182.927 282.647C175.268 290.347 167.189 291.037 156.887 291.102C152.926 291.117 149.019 291.124 145.061 291.009C128.075 290.514 116.756 277.802 116.692 261.017C116.627 243.587 116.663 226.107 116.664 208.652L116.663 106.172L116.647 53.5136L116.635 38.0121C116.635 33.9401 116.559 29.0028 117.102 24.9883C117.901 18.8326 120.664 13.0983 124.98 8.63683C133.006 0.325829 141.005 0.337079 151.34 0.114329Z" fill="black" style="fill:black;fill-opacity:1;"/>
<path d="M27.8293 66.8446C32.8008 66.6394 37.7735 66.7811 42.737 66.7036C50.796 66.5779 58.03 68.2649 64.3398 73.4444C70.0285 78.1086 73.5938 84.8719 74.227 92.2011C74.5905 96.2794 74.5123 101.095 74.5323 105.262L74.5555 125.849L74.5605 188.378L74.553 239.524L74.5 254.867C74.4823 258.682 74.5348 262.379 74.1135 266.179C72.8843 277.262 65.1788 286.189 54.6735 289.627C52.0298 290.492 49.528 290.712 46.7475 290.947C38.9088 291.224 27.7928 291.692 20.2205 289.774C16.322 288.577 12.4085 286.247 9.3905 283.589C-0.903749 274.524 0.11925 262.832 0.119 250.507L0.12 228.554L0.115502 160.522L0.105 115.769C0.1045 108.062 -0.315748 99.2404 0.528752 91.6439C2.13925 77.1586 13.8075 67.6349 27.8293 66.8446Z" fill="#848484" style="fill:#848484;fill:color(display-p3 0.5172 0.5172 0.5172);fill-opacity:1;"/>
<path d="M261.156 116.843C264.363 116.628 268.171 116.788 271.421 116.732C281.368 116.562 289.361 116.569 297.508 123.353C303.978 128.741 307.236 135.777 307.783 144.179C308.311 152.255 308.068 161.061 308.066 169.239L308.063 212.967L308.053 246.412C308.046 252.684 308.328 259.564 307.588 265.714C306.281 276.569 299.166 285.824 288.778 289.412C285.731 290.464 283.261 290.697 280.121 290.954C267.768 291.339 253.376 292.922 243.596 284.227C237.133 278.482 234.148 272.192 233.638 263.594C233.123 254.942 233.251 246.399 233.251 237.767L233.246 196.259V164.215C233.243 156.487 232.933 147.985 234.113 140.364C236.273 126.421 247.621 117.868 261.156 116.843Z" fill="#848484" style="fill:#848484;fill:color(display-p3 0.5172 0.5172 0.5172);fill-opacity:1;"/>
</svg>
