<svg viewBox="0 0 64 64" xmlns="http://www.w3.org/2000/svg">
  <g transform="translate(8 6)">
    <path
      fill="#2A6DCE"
      d="M2.4 20.8 8.7 24.4c.2.1.5.2.7.2s.5-.1.7-.2l6.3-3.6.1-.1c.1-.1.2-.1.3-.2l.1-.1c.1-.1.1-.2.2-.3l.1-.1c0-.1.1-.2.1-.3v-.1c0-.1.1-.2.1-.3v-3.6c0-1.4.8-2.7 2-3.5 1.2-.7 2.8-.7 3.9 0l3.2 1.8c.1.1.2.1.3.1h.1c.1 0 .2.1.3.1h.3c.1 0 .2 0 .3-.1h.1c.1 0 .2-.1.3-.1l6.3-3.6c.5-.2.7-.7.7-1.3V4.7c0-.5-.3-1-.7-1.3L29.6.8c-.5-.3-1-.3-1.5 0l-6.3 3.6-.1.1c-.1.1-.2.1-.3.2l-.1.1c-.1.1-.1.2-.2.3l-.1.1c0 .1-.1.2-.1.3v.1c0 .1-.1.2-.1.3v3.6c0 1.4-.8 2.7-2 3.5-1.2.7-2.8.7-3.9 0l-3.2-1.8c-.1-.1-.2-.1-.3-.1h-.1c-.1 0-.2-.1-.3-.1h-.3c-.1 0-.2 0-.3.1h-.1c-.1 0-.2.1-.3.1L2.4 14c-.5.2-.7.7-.7 1.3v5.5c0 .5.3 1 .7 1.3Z"
    />
    <path
      fill="#1DC19C"
      d="M35.3 22.7c1.2-.7 2.8-.7 3.9 0l3.2 1.8c.1.1.2.1.3.1h.1c.1 0 .2.1.3.1h.3c.1 0 .2 0 .3-.1h.1c.1 0 .2-.1.3-.1l6.3-3.6c.5-.2.7-.7.7-1.3v-5.5c0-.5-.3-1-.7-1.3L44.8 9.2c-.5-.3-1-.3-1.5 0L37 12.8l-.1.1c-.1.1-.2.1-.3.2l-.1.1c-.1.1-.1.2-.2.3l-.1.1c0 .1-.1.2-.1.3v.1c0 .1-.1.2-.1.3v3.6c0 1.4-.8 2.7-2 3.5-1.2.7-2.8.7-3.9 0L27 19.9c-.1-.1-.2-.1-.3-.1h-.1c-.1 0-.2-.1-.3-.1H26c-.1 0-.2 0-.3.1h-.1c-.1 0-.2.1-.3.1l-6.3 3.6c-.5.2-.7.7-.7 1.3v5.5c0 .5.3 1 .7 1.3l6.3 3.6.3.1h.1c.1 0 .2.1.3.1h.3c.1 0 .2 0 .3-.1h.1c.1 0 .2-.1.3-.1l3.2-1.8c1.2-.7 2.8-.7 3.9 0 1.2.7 2 2 2 3.4v3.6c0 .1 0 .2.1.3v.1c0 .1.1.2.1.3l.1.1c.1.1.1.2.2.3l.1.1c.1.1.2.1.3.2l.1.1 6.3 3.6c.2.1.5.2.7.2s.5-.1.7-.2l6.3-3.6c.5-.2.7-.7.7-1.3v-5.5c0-.5-.3-1-.7-1.3l-6.3-3.6c-.1-.1-.2-.1-.3-.1h-.1c-.1 0-.2-.1-.3-.1h-.3c-.1 0-.2 0-.3.1h-.1c-.1 0-.2.1-.3.1l-3.2 1.8c-1.2.7-2.7.7-3.9 0-1.2-.7-2-2-2-3.4 0-1.4.8-2.7 2-3.5Z"
    />
    <path
      fill="#1796E2"
      d="m32.5 40.7-6.3-3.6c-.1-.1-.2-.1-.3-.1h-.1c-.1 0-.2-.1-.3-.1h-.3c-.1 0-.2 0-.3.1h-.1c-.1 0-.2.1-.3.1L21 39c-1.2.7-2.7.7-3.9 0-1.2-.7-2-2-2-3.4V32c0-.1 0-.2-.1-.3v-.1c0-.1-.1-.2-.1-.3l-.1-.1c-.1-.1-.1-.2-.2-.3l-.1-.1c-.1-.1-.2-.1-.3-.2l-.1-.1-6.3-3.6c-.5-.3-1-.3-1.5 0L.9 30.2c-.5.2-.7.7-.7 1.3V37c0 .5.3 1 .7 1.3L7.2 42c.1.1.2.1.3.1h.1c.1 0 .2.1.3.1h.3c.1 0 .2 0 .3-.1h.1c.1 0 .2-.1.3-.1l3.2-1.8c1.2-.7 2.8-.7 3.9 0 1.2.7 2 2 2 3.4v3.6c0 .1 0 .2.1.3v.1c0 .1.1.2.1.3l.1.1c.1.1.1.2.2.3l.1.1c.1.1.2.1.3.2l.1.1 6.3 3.6c.2.1.5.2.7.2s.5-.1.7-.2l6.3-3.6c.5-.2.7-.7.7-1.3V42c0-.5-.3-1-.7-1.3Z"
    />
  </g>
</svg>
