<svg width="24" height="24" viewBox="0 0 24 24" fill="none" xmlns="http://www.w3.org/2000/svg">
<path d="M5.00391 12.001L6.0388 17.0164C6.50038 19.2534 6.73116 20.3719 7.56024 21.0308C9.1363 22.2831 14.8604 22.2871 16.4415 21.0308C17.2706 20.3719 17.5014 19.2534 17.963 17.0164L18.9978 12.001" fill="#FB2525"/>
<path d="M5.00391 12.001L6.0388 17.0164C6.50038 19.2534 6.73116 20.3719 7.56024 21.0308C9.1363 22.2831 14.8604 22.2871 16.4415 21.0308C17.2706 20.3719 17.5014 19.2534 17.963 17.0164L18.9978 12.001" stroke="#5E1111" stroke-width="1.5"/>
<path d="M15.0039 12.0148L14.0039 21.999" stroke="#5E1111" stroke-width="1.5"/>
<path d="M11.0933 2.31253C11.4903 2.4964 11.8307 2.8496 12.0238 3.02872C12.217 2.8496 12.5087 2.49637 12.9057 2.3125C14.4769 1.58479 16.6094 2.17175 17.4829 3.66401C17.8371 4.26919 18.1144 5.10452 18.0476 5.98859C19.2569 5.98859 20.9312 6.89326 20.9963 8.83838C21.0552 10.5998 20.1504 11.3979 19.4068 11.7759C19.0342 11.9653 18.6103 12.0135 18.1921 12.0135H5.80688C5.38866 12.0135 4.96479 11.9653 4.59218 11.7759C3.84857 11.3979 2.94382 10.5998 3.00273 8.83841C3.06779 6.89329 4.79817 6.03205 6.00752 6.03205C5.94064 5.14798 6.16192 4.26922 6.51616 3.66404C7.38963 2.17178 9.52207 1.58482 11.0933 2.31253Z" fill="#FFC756" stroke="#C09641" stroke-width="1.5"/>
</svg>
