<svg width="24" height="24" viewBox="0 0 24 24" fill="none" xmlns="http://www.w3.org/2000/svg">
<path d="M17 7.50098C19.175 7.51308 20.3529 7.60953 21.1213 8.37792C22 9.2566 22 10.6708 22 13.4992V15.4992C22 18.3277 22 19.7419 21.1213 20.6206C20.2426 21.4992 18.8284 21.4992 16 21.4992H8C5.17157 21.4992 3.75736 21.4992 2.87868 20.6206C2 19.7419 2 18.3277 2 15.4992V13.4992C2 10.6708 2 9.2566 2.87868 8.37792C3.64706 7.60953 4.82497 7.51308 7 7.50098" fill="#85BB65"/>
<path d="M17 7.50098C19.175 7.51308 20.3529 7.60953 21.1213 8.37792C22 9.2566 22 10.6708 22 13.4992V15.4992C22 18.3277 22 19.7419 21.1213 20.6206C20.2426 21.4992 18.8284 21.4992 16 21.4992H8C5.17157 21.4992 3.75736 21.4992 2.87868 20.6206C2 19.7419 2 18.3277 2 15.4992V13.4992C2 10.6708 2 9.2566 2.87868 8.37792C3.64706 7.60953 4.82497 7.51308 7 7.50098" stroke="#1B5305" stroke-width="1.5" stroke-linecap="round" stroke-linejoin="round"/>
<path d="M15 14.4993C15 16.1561 13.6569 17.4993 12 17.4993C10.3431 17.4993 9 16.1561 9 14.4993C9 12.8424 10.3431 11.4993 12 11.4993C13.6569 11.4993 15 12.8424 15 14.4993Z" stroke="#1B5305" stroke-width="1.5" stroke-linecap="round" stroke-linejoin="round"/>
<path d="M9.5 6.00098C9.5 6.00098 11.2998 3.50098 12 3.50098C12.7002 3.50098 14.5 6.00098 14.5 6.00098M12 9.00098V4.00098" stroke="#C41E1E" stroke-width="1.5" stroke-linecap="round" stroke-linejoin="round"/>
<path d="M18 7.5166C18 9.69692 19.769 11.468 21.9423 11.4989" stroke="#1B5305" stroke-width="1.5" stroke-linecap="round" stroke-linejoin="round"/>
<path d="M18 21.4819V21.39C18 19.2412 19.742 17.4993 21.8908 17.4993" stroke="#1B5305" stroke-width="1.5" stroke-linecap="round" stroke-linejoin="round"/>
<path d="M2.01758 17.4993C4.21715 17.4993 6.00026 19.2824 6.00026 21.4819" stroke="#1B5305" stroke-width="1.5" stroke-linecap="round" stroke-linejoin="round"/>
<path d="M6.00026 7.5166C6.00026 9.71617 4.21715 11.4993 2.01758 11.4993" stroke="#1B5305" stroke-width="1.5" stroke-linecap="round" stroke-linejoin="round"/>
</svg>
