<?xml version="1.0" encoding="UTF-8"?>
<svg version="1.1" xmlns="http://www.w3.org/2000/svg" width="60" height="60">
<path d="M0 0 C0.99 -0.33 1.98 -0.66 3 -1 C12.1506105 -2.00556159 12.1506105 -2.00556159 16.0546875 0.1171875 C17.6875 1.5 17.6875 1.5 20 4 C19.175 4.99 18.35 5.98 17.5 7 C14.48405808 11.22060994 14.42272903 13.88702857 15 19 C15.85327524 22.27088842 16.23941129 23.53022462 19.125 25.3125 C20.053125 25.6528125 20.053125 25.6528125 21 26 C19.67839481 30.62561815 17.84376817 34.12213431 15 38 C14.38125 38.928125 14.38125 38.928125 13.75 39.875 C9.89626295 42.35240239 4.50033561 41.07382001 0.1875 40.4375 C-3.01343771 39.75876119 -3.01343771 39.75876119 -6 41 C-12.7768926 41.8887728 -12.7768926 41.8887728 -15.71484375 39.75390625 C-22.68819572 32.07079836 -25.34601834 22.84557896 -25.2109375 12.6875 C-24.8086954 7.56263765 -22.78202829 4.87739759 -19.4375 1.125 C-13.91959664 -3.16823154 -6.3638401 -1.08650929 0 0 Z " fill="#FFFFFF" transform="translate(32,15)"/>
<path d="M0 0 C-0.35225706 5.87095105 -1.62379644 9.00433588 -6 13 C-9.8125 13.875 -9.8125 13.875 -13 14 C-12.58791189 8.74587663 -11.82282913 5.71663943 -8 2 C-5.03533048 0.48151073 -3.34238213 0 0 0 Z " fill="#FFFFFF" transform="translate(42,0)"/>
</svg>
