<?xml version="1.0" encoding="UTF-8"?>
<svg version="1.1" xmlns="http://www.w3.org/2000/svg" width="50" height="50">
<path d="M0 0 C2.78546373 3.2657161 3.36509619 6.56694247 4.26171875 10.69140625 C5.18393537 13.57516299 6.59600613 15.95210999 8.125 18.5625 C10.71868316 23.08255949 11.68701151 25.84741369 11 31 C8.03 30.67 5.06 30.34 2 30 C1.73445313 29.22914062 1.46890625 28.45828125 1.1953125 27.6640625 C0.84210937 26.66117188 0.48890625 25.65828125 0.125 24.625 C-0.22304688 23.62726562 -0.57109375 22.62953125 -0.9296875 21.6015625 C-1.84782502 18.89557882 -1.84782502 18.89557882 -4 17 C-6.58354218 16.83312552 -6.58354218 16.83312552 -9 17 C-9.309375 17.94875 -9.61875 18.8975 -9.9375 19.875 C-11 23 -11 23 -12 25 C-12.4167552 27.95788569 -12.4167552 27.95788569 -12 31 C-11.34 31.495 -10.68 31.99 -10 32.5 C-9.34 32.995 -8.68 33.49 -8 34 C-7.75 37.1875 -7.75 37.1875 -8 40 C-5.36 39.67 -2.72 39.34 0 39 C0 40.65 0 42.3 0 44 C-0.66386719 43.97679687 -1.32773437 43.95359375 -2.01171875 43.9296875 C-7.41813923 43.68720668 -7.41813923 43.68720668 -12.5 45.1875 C-16.80824416 46.58767935 -20.8643565 44.49364989 -25 43 C-25.28778171 39.94951384 -25.45334512 37.03849167 -25 34 C-22.5625 32 -22.5625 32 -20 31 C-19.505 30.505 -19.505 30.505 -19 30 C-19.0825 29.195625 -19.165 28.39125 -19.25 27.5625 C-18.99191323 23.88476346 -18.32374836 22.50891184 -16.5625 19.375 C-13.86529446 14.39612479 -13.40911285 10.17895525 -13.3359375 4.56640625 C-13 2 -13 2 -11.6640625 0.21484375 C-7.49968316 -2.82534868 -4.53764623 -1.78264673 0 0 Z M-10 6 C-10 6.66 -10 7.32 -10 8 C-9.34 8 -8.68 8 -8 8 C-8 7.34 -8 6.68 -8 6 C-8.66 6 -9.32 6 -10 6 Z M-5 6 C-5 6.66 -5 7.32 -5 8 C-4.34 8 -3.68 8 -3 8 C-3 7.34 -3 6.68 -3 6 C-3.66 6 -4.32 6 -5 6 Z M-9 12 C-8.67 12.66 -8.34 13.32 -8 14 C-7.01 14 -6.02 14 -5 14 C-5 13.34 -5 12.68 -5 12 C-6.32 12 -7.64 12 -9 12 Z M-16 31 C-15 33 -15 33 -15 33 Z M-14 34 C-13 36 -13 36 -13 36 Z " fill="#FFFFFF" transform="translate(30,3)"/>
<path d="M0 0 C1.98 0 3.96 0 6 0 C6 0.66 6 1.32 6 2 C6.66 2 7.32 2 8 2 C9.6875 3.75 9.6875 3.75 11 6 C10.75503715 8.67861546 10.31806069 9.71687504 8.29296875 11.51953125 C7.59816406 11.94621094 6.90335938 12.37289062 6.1875 12.8125 C5.50042969 13.25207031 4.81335937 13.69164062 4.10546875 14.14453125 C1.60705494 15.15965671 0.48957835 14.91191297 -2 14 C-2.05437607 12.41705218 -2.09296271 10.83355744 -2.125 9.25 C-2.14820312 8.36828125 -2.17140625 7.4865625 -2.1953125 6.578125 C-1.99139502 3.8864142 -1.36551721 2.30095026 0 0 Z M1 3 C5 4 5 4 5 4 Z " fill="#FFFFFF" transform="translate(33,34)"/>
</svg>
