<?xml version="1.0" encoding="UTF-8"?>
<svg
    width="100%"
    height="100%"
    viewBox="0 0 1024 1024"
    version="1.1"
    xmlns="http://www.w3.org/2000/svg"
    xmlns:xlink="http://www.w3.org/1999/xlink"
    xmlns:serif="http://www.serif.com/"
    xml:space="preserve"
    style="fill-rule:evenodd;clip-rule:evenodd;stroke-linejoin:round;stroke-miterlimit:2;"
>
    <g id="AimeFlux">
        <g id="New-Icon" serif:id="New Icon" transform="matrix(0.953485,0,0,0.953485,23.520656,24.706934)">
            <path d="M845.805,789.355C847.157,792.501 860.843,814.937 843.403,821.221C839.411,822.66 778.001,822.749 773.608,821.186C763.501,817.59 761.04,803.865 752.016,784.728C749.39,779.158 749.652,779.11 720.841,714.347C716.298,704.135 681.2,625.238 664.475,586.511C663,583.095 659.794,578.444 663.494,578.419C683.736,578.283 684.096,578.336 685.026,579.79C685.495,580.523 732.763,687.077 737.571,698.469C743.432,712.358 777.876,789.629 781.405,797.545C782.436,799.859 783.225,799.515 808.501,799.549C819.5,799.563 826.032,800.216 825.177,797.581C824.294,794.861 743.222,611.827 736.072,595.685C722.031,563.984 723.133,562.925 720.379,561.758C717.317,560.461 631.243,563.1 624.609,560.205C610.016,553.836 605.671,520.575 599.735,534.602C586.696,565.417 575.571,599.466 569.995,604.977C559.245,615.602 544.264,609.176 540.73,598.427C538.873,592.778 526.673,555.672 518.072,527.632C517.406,525.46 510.874,504.165 509.347,500.613C507.965,497.4 507.232,501.416 491.107,540.339C478.217,571.452 476.328,579.502 462.459,581.156C444.155,583.339 439.492,566.232 429.276,546.62C423.26,535.073 421.112,526.57 416.82,534.679C405.097,556.826 401.912,561.306 392.499,561.43C366.644,561.771 303.576,560.786 302.128,562.045C300.18,563.741 261.255,653.626 257.789,661.629C223.682,740.389 197.063,797.945 197.981,799.099C199.551,801.072 200.18,799.567 229.501,799.561C237.643,799.559 239.947,802.207 242.986,794.688C248.12,781.988 317.239,626.236 323.732,611.604C337.22,581.211 336.458,580.625 338.758,578.891C339.238,578.529 361.217,577.411 361.376,579.514C361.46,580.621 304.775,707.901 299.494,720.498C296.545,727.532 295.962,727.235 260.91,807.684C253.769,824.074 249.737,822.178 214.5,822.161C183.234,822.146 173.158,824.353 170.419,810.513C168.865,802.667 184.644,774.423 198.906,739.669C206.108,722.12 246.035,632.642 250.179,623.356C251.801,619.721 262.267,596.267 269.976,577.705C270.781,575.768 329.33,443.436 330.273,441.399C339.707,421.017 338.348,420.49 443.811,184.637C475.002,114.883 554.48,126.728 577.855,180.347C579.754,184.703 675.302,400.744 680.58,413.465C681.361,415.348 821.104,732.632 826.432,745.528C827.896,749.071 828.439,748.821 845.805,789.355Z" style="fill:rgb(83,88,251);" />
            <path d="M533.421,164.658C555.334,177.245 552.186,181.226 594.047,274.71C594.525,275.778 665.383,436.169 690.1,491.671C691.732,495.336 709.58,535.414 710.371,537.539C711.931,541.731 707.985,539.825 654.502,539.806C635.469,539.799 634.457,540.746 632.021,536.768C624.369,524.275 615.178,499.292 592.732,509.932C591.502,510.515 588.35,514.257 588.369,510.52C588.864,414.709 588.455,413.764 583.032,400.689C550.016,321.092 445.234,341.421 435.247,420.467C433.759,432.245 435.484,511.197 434.197,512.084C433.63,512.475 423.608,504.303 412.598,508.786C396.024,515.534 394.898,539.624 386.508,539.734C380.602,539.812 313.676,540.696 312.673,539.367C311.585,537.926 404.373,331.777 416.541,303.517C423.595,287.135 460.223,204.858 464.038,196.286C468.656,185.913 470.14,179.367 483.645,168.708C504.997,151.856 529.778,163.017 533.421,164.658Z" style="fill:rgb(2,13,36);" />
            <path d="M481.145,507.348C461.146,555.026 461.059,559.93 458.719,556.313C455.686,551.625 456.938,551.077 456.674,469.5C456.526,423.981 454.297,406.681 475.665,386.68C504.627,359.571 566.481,371.186 566.555,434.5C566.566,444.341 566.697,556.913 566.568,557.512C566.236,559.061 558.668,578.12 558.4,578.297C556.671,579.441 557.354,577.183 533.3,504.561C523.699,475.574 523.273,465.437 509.495,464.749C496.422,464.096 493.797,477.917 484.771,498.622C484.562,499.101 481.435,506.649 481.145,507.348Z" style="fill:rgb(2,12,34);" />
            <path d="M582.603,801.39C590.159,809.345 585.522,821.228 573.5,821.324C563.095,821.407 448.146,822.323 443.43,820.704C431.069,816.46 433.045,798.457 447.497,798.267C470.445,797.966 499.33,799.17 500.235,797.372C500.557,796.731 500.953,757.91 500.068,756.906C498.891,755.573 416.876,752.611 391.707,657.441C387.416,641.214 386.082,602.998 389.932,596.79C394.83,588.893 409.353,592.151 409.717,602.48C410.53,625.567 402.132,682.654 462.787,721.023C521.427,758.117 612.073,715.725 613.064,627.5C613.276,608.662 609.687,590.929 625.53,592.267C636.804,593.22 634.984,607.997 634.897,623.5C634.404,710.712 569.979,750.04 529.517,755.629C524.342,756.344 523.329,755.023 522.593,757.532C522.425,758.103 522.144,796.395 522.794,797.346C524.726,800.176 573.319,796.024 580.361,799.769C580.556,799.873 580.527,799.889 582.603,801.39Z" style="fill:rgb(99,68,250);" />
            <path d="M521.434,686.11C569.618,672.793 565.172,633.306 567.07,628.317C567.388,627.483 582.614,621.34 586.037,614.134C589.69,606.441 588.531,616.099 588.521,625.5C588.435,701.983 513.897,725.618 473.79,699.082C428.75,669.282 435.089,632.609 434.571,592.509C434.526,589.004 438.39,592.982 438.71,593.2C447.447,599.147 454.697,599.164 455.511,599.474C459.642,601.046 451.625,634.566 462.759,655.364C482.709,692.629 515.684,686.821 521.434,686.11Z" style="fill:rgb(94,71,250);" />
        </g>
    </g>
</svg>
