<svg width="512" height="512" viewBox="0 0 512 512" fill="none" xmlns="http://www.w3.org/2000/svg">
  <rect width="512" height="512" rx="96" fill="#0039A6"/>
  <path d="M0 256H512V416C512 469.019 469.019 512 416 512H96C42.9807 512 0 469.019 0 416V256Z" fill="#D52B1E"/>
  <rect x="0" y="0" width="256" height="256" fill="#0039A6"/>
  <path d="M128 57L148.817 105.349L201.205 110.292L161.681 145.051L173.194 196.408L128 169.5L82.8062 196.408L94.3194 145.051L54.7951 110.292L107.183 105.349L128 57Z" fill="white"/>
  <rect x="76" y="306" width="360" height="92" rx="24" fill="white"/>
  <path d="M138 367V336H176C185.941 336 194 344.059 194 354C194 363.941 185.941 372 176 372H162L195 403H159L132 376V403H102V336H138V367ZM138 360H172C175.314 360 178 357.314 178 354C178 350.686 175.314 348 172 348H138V360Z" fill="#0039A6"/>
  <path d="M215 336H245V373C245 381.284 251.716 388 260 388C268.284 388 275 381.284 275 373V336H305V374C305 393.33 289.33 409 270 409H250C230.67 409 215 393.33 215 374V336Z" fill="#0039A6"/>
  <path d="M318 336H410V361H379V403H349V361H318V336Z" fill="#0039A6"/>
</svg>
